Title: 
The Suicide Shop Aka Le Magasin des Suicides

Country: 
France/2012

Language: 
French

No Subtitle

Director:
Patrice Leconte

Writers:
Patrice Leconte, Jean Teulé (novel) 

Synopsis:
Have you messed up your life? We’ll help you put an end to it!” This is the slogan of the Tuvache family, who own the most sinister business in town: the suicide shop. Mishima, Lucrezia and their two teenage children, Marilyn and Vincent, welcome society’s most forlorn outcasts to their shop of horrors. The company thrives on sadness and despair until the birth of Alan, a bundle of joy who turns the gloomy world of this black comedy inside out. 

Trivia:
Patrice Leconte, an icon of French cinema, has over 40 films to his name (Les Bronzés, The Hairdresser’s Husband, Monsieur Hire). This is his first foray into the world of 3D animation, with an adaptation of Jean Teule’s novel of the same name. A true opera of terror, the film combines elements of musical comedy with a Tim Burton aesthetic, plunging its characters into increasingly absurd situations. The result is a joyously dark œuvre with exquisite dialogue. Selection for Cannes Film Festival 2012.

Imdb: 
http://www.imdb.com/title/tt1655413/?ref_=fn_al_tt_1

Trailer: 
http://www.bandes-annonces.fr/film/bande-annonce-lemagasindessuicides.html

Media Info:

General
Complete name                            : Le.Magasin.des.Suicides.[The.Suicide.Shop].2012.BRRip.AC3-HORiZON.ArtSubs
Format                                   : AVI
Format/Info                              : Audio Video Interleave
File size                                : 1.36 GiB
Duration                                 : 1h 19mn
Overall bit rate                         : 2 468 Kbps
Writing application                      : FairUse Wizard - http://fairusewizard.com
Writing library                          : The best and REALLY easy backup tool

Video
ID                                       : 0
Format                                   : MPEG-4 Visual
Format profile                           : Advanced Simple@L5
Format settings, BVOP                    : 1
Format settings, QPel                    : No
Format settings, GMC                     : No warppoints
Format settings, Matrix                  : Default (MPEG)
Muxing mode                              : Packed bitstream
Codec ID                                 : XVID
Codec ID/Hint                            : XviD
Duration                                 : 1h 19mn
Bit rate                                 : 2 011 Kbps
Width                                    : 712 pixels
Height                                   : 392 pixels
Display aspect ratio                     : 16:9
Frame rate                               : 23.976 fps
Color space                              : YUV
Chroma subsampling                       : 4:2:0
Bit depth                                : 8 bits
Scan type                                : Progressive
Compression mode                         : Lossy
Bits/(Pixel*Frame)                       : 0.300
Stream size                              : 1.11 GiB (81%)
Writing library                          : XviD 1.2.1 (UTC 2008-12-04)

Audio
ID                                       : 1
Format                                   : AC-3
Format/Info                              : Audio Coding 3
Mode extension                           : CM (complete main)
Format settings, Endianness              : Big
Codec ID                                 : 2000
Duration                                 : 1h 19mn
Bit rate mode                            : Constant
Bit rate                                 : 448 Kbps
Channel(s)                               : 6 channels
Channel positions                        : Front: L C R, Side: L R, LFE
Sampling rate                            : 48.0 KHz
Bit depth                                : 16 bits
Compression mode                         : Lossy
Stream size                              : 254 MiB (18%)
Alignment                                : Split accross interleaves
Interleave, duration                     : 42 ms (1.00 video frame)
Interleave, preload duration             : 500 ms

